inDegrees=yes
name=IK-live
DataType=double
version=3
OpenSimVersion=4.1
endheader
time	pelvis_tilt	pelvis_list	pelvis_rotation	pelvis_tx	pelvis_ty	pelvis_tz	hip_flexion_r	hip_adduction_r	hip_rotation_r	knee_angle_r	ankle_angle_r	subtalar_angle_r	mtp_angle_r	hip_flexion_l	hip_adduction_l	hip_rotation_l	knee_angle_l	ankle_angle_l	subtalar_angle_l	mtp_angle_l	lumbar_extension	lumbar_bending	lumbar_rotation	neck_flex	neck_latbend	neck_rot	arm_flex_r	arm_add_r	arm_rot_r	elbow_flex_r	pro_sup_r	wrist_flex_r	wrist_dev_r	arm_flex_l	arm_add_l	arm_rot_l	elbow_flex_l	pro_sup_l	wrist_flex_l	wrist_dev_l
0	-9.820477124603341	11.61198770444873	-223.5913550320058	0.2341366603171506	0.04326292228651554	-1.326684523481465	-22.57117169827992	-1.591976316804377	-3.241458145969817	5.899560354604904	2.451982624139334	1.987972377786656	0	-24.74788768789517	-3.395140484746916	-11.58000132048591	9.793848132074926	-0.4439473045988533	4.250290820099795	0	-21.37711699760957	1.659277491615732	3.206407148933037	0	0	0	39.13240403940804	-15.04238095956916	4.696480066589049	73.96273045230389	45.68650068045854	0	5.241984509075645	41.63417111580411	-14.5749757904019	6.319951391788678	74.4496118930773	45.4421242409752	0	5.241984509075645
2.2256207	-9.905519820828387	11.32484752537841	-223.0566477948086	0.2341366603171506	0.04326292228651554	-1.326684523481465	-22.57117169827992	-1.591976316804377	-3.241458145969817	5.899560354604904	2.451982624139334	1.987972377786656	0	-24.74788768789517	-3.395140484746916	-11.58000132048591	9.793848132074926	-0.4439473045988533	4.250290820099795	0	-21.37711699760957	1.659277491615732	3.206407148933037	0	0	0	74.24789292398448	-14.98839282824588	-2.429411415609362	76.13709940697241	45.0770989376679	0	4.95362505986447	74.97496778908041	-15.11639635318226	-2.93511551352347	76.10476406817082	45.08621623728213	0	4.95362505986447
6.1532697	-9.803027849363046	11.64525155314848	-223.6779706959669	0.2341366603171506	0.04326292228651554	-1.326684523481465	-22.57117169827992	-1.591976316804377	-3.241458145969817	5.899560354604904	2.451982624139334	1.987972377786656	0	-24.74788768789517	-3.395140484746916	-11.58000132048591	9.793848132074926	-0.4439473045988533	4.250290820099795	0	-21.37711699760957	1.659277491615732	3.206407148933037	0	0	0	34.32106991390908	-15.05599359985078	7.516325221795944	70.95493166939636	44.92284154294161	0	5.531113250298234	37.13584968529543	-14.43843933665972	10.19518964664682	71.58161492222271	44.88154681717334	0	5.531113250298234
9.2512919	-9.80069429655501	11.64802399165244	-223.6666176221594	0.2341366603171506	0.04326292228651554	-1.326684523481465	-22.57117169827992	-1.591976316804377	-3.241458145969817	5.899560354604904	2.451982624139334	1.987972377786656	0	-24.74788768789517	-3.395140484746916	-11.58000132048591	9.793848132074926	-0.4439473045988533	4.250290820099795	0	-21.37711699760957	1.659277491615732	3.206407148933037	0	0	0	33.72427287854689	-15.0577501692762	7.850112733359025	70.49526235321679	44.82541073900651	0	5.570987326652504	36.57568838784831	-14.42082245754801	10.63086269364009	71.13794789256171	44.81275796904234	0	5.570987326652504
11.9506553	-7.369169916780386	14.37352434494685	-222.806687483405	0.2341366603171506	0.04326292228651554	-1.326684523481465	-22.57117169827992	-1.591976316804377	-3.241458145969817	5.899560354604904	2.451982624139334	1.987972377786656	0	-24.74788768789517	-3.395140484746916	-11.58000132048591	9.793848132074926	-0.4439473045988533	4.250290820099795	0	-21.37711699760957	1.659277491615732	3.206407148933037	0	0	0	2.978997971205118	-15.16757833035119	30.93274224644867	20.60877951762349	29.19840308990965	0	1.78349537242584	7.893509655223788	-13.31931260668996	40.53032739202095	20.63247629617778	35.79199670135536	0	1.78349537242584
12.8250337	3.251769892742247	14.71958404468563	82.15903377538706	0.2341366603171506	0.04326292228651554	-1.326684523481465	-22.57117169827992	-1.591976316804377	-3.241458145969817	5.899560354604904	2.451982624139334	1.987972377786656	0	-24.74788768789517	-3.395140484746916	-11.58000132048591	9.793848132074926	-0.4439473045988533	4.250290820099795	0	-21.37711699760957	1.659277491615732	3.206407148933037	0	0	0	56.88176563494211	-15.00999090388344	0.2577432772679158	77.17389405996299	44.67330054451067	0	4.982327462754485	58.4591088447493	-14.89980137824483	0.2735532622137553	77.2128608281742	44.75841819743582	0	4.982327462754485
14.2751413	10.37360931640018	10.79714742146141	50.29332640653453	0.2341366603171506	0.04326292228651554	-1.326684523481465	-22.57117169827992	-1.591976316804377	-3.241458145969817	5.899560354604904	2.451982624139334	1.987972377786656	0	-24.74788768789517	-3.395140484746916	-11.58000132048591	9.793848132074926	-0.4439473045988533	4.250290820099795	0	-21.37711699760957	1.659277491615732	3.206407148933037	0	0	0	1.97281487599285	-15.17146671258988	31.94770701503638	14.01386967246704	27.26424820057057	0	0.9913750994264053	6.96446283095806	-13.28030824409856	41.9768073399869	13.95325948177006	34.80123527164474	0	0.9913750994264053
